<svg xmlns="http://www.w3.org/2000/svg" xmlns:xlink="http://www.w3.org/1999/xlink" width="500" zoomAndPan="magnify" viewBox="0 0 375 374.999991" height="500" preserveAspectRatio="xMidYMid meet" version="1.0"><defs><clipPath id="4f5405024b"><path d="M 132 134 L 243 134 L 243 259.160156 L 132 259.160156 Z M 132 134 " clip-rule="nonzero"/></clipPath><clipPath id="5f05073532"><path d="M 112.5 116 L 262.5 116 L 262.5 193 L 112.5 193 Z M 112.5 116 " clip-rule="nonzero"/></clipPath></defs><g clip-path="url(#4f5405024b)"><path fill="#363336" d="M 194.820312 137.117188 C 190.773438 133.070312 184.195312 133.070312 180.179688 137.117188 L 135.261719 182.035156 C 133.300781 183.996094 132.210938 186.59375 132.210938 189.371094 L 132.210938 248.6875 C 132.210938 254.394531 136.859375 259.042969 142.566406 259.042969 L 166.746094 259.042969 C 172.453125 259.042969 177.101562 254.394531 177.101562 248.6875 L 177.101562 221.066406 C 177.101562 219.164062 178.640625 217.625 180.542969 217.625 L 194.367188 217.625 C 196.269531 217.625 197.808594 219.164062 197.808594 221.066406 L 197.808594 248.71875 C 197.808594 254.425781 202.457031 259.074219 208.164062 259.074219 L 232.34375 259.074219 C 238.046875 259.074219 242.695312 254.425781 242.695312 248.71875 L 242.695312 189.371094 C 242.695312 186.59375 241.609375 183.996094 239.648438 182.035156 Z M 235.875 248.6875 C 235.875 250.589844 234.335938 252.128906 232.433594 252.128906 L 208.253906 252.128906 C 206.351562 252.128906 204.8125 250.589844 204.8125 248.6875 L 204.8125 221.066406 C 204.8125 215.363281 200.164062 210.710938 194.457031 210.710938 L 180.632812 210.710938 C 174.925781 210.710938 170.277344 215.363281 170.277344 221.066406 L 170.277344 248.71875 C 170.277344 250.621094 168.738281 252.160156 166.835938 252.160156 L 142.566406 252.160156 C 140.664062 252.160156 139.125 250.621094 139.125 248.71875 L 139.125 189.371094 C 139.125 188.433594 139.488281 187.589844 140.152344 186.925781 L 185.039062 142.007812 C 186.335938 140.707031 188.632812 140.707031 189.929688 142.007812 L 234.847656 186.925781 C 235.511719 187.589844 235.875 188.433594 235.875 189.371094 Z M 235.875 248.6875 " fill-opacity="1" fill-rule="nonzero"/></g><g clip-path="url(#5f05073532)"><path fill="#363336" d="M 194.820312 119.847656 C 190.894531 115.925781 184.074219 115.925781 180.179688 119.847656 L 159.863281 140.164062 L 159.863281 136.421875 C 159.863281 130.71875 155.214844 126.066406 149.507812 126.066406 L 142.566406 126.066406 C 136.859375 126.066406 132.210938 130.71875 132.210938 136.421875 L 132.210938 167.816406 L 112.5 187.527344 L 117.390625 192.417969 L 185.039062 124.738281 C 186.335938 123.441406 188.632812 123.441406 189.929688 124.738281 L 257.609375 192.417969 L 262.5 187.527344 Z M 139.125 136.421875 C 139.125 134.519531 140.664062 132.980469 142.566406 132.980469 L 149.480469 132.980469 C 151.382812 132.980469 152.921875 134.519531 152.921875 136.421875 L 152.921875 147.078125 L 139.09375 160.902344 L 139.09375 136.421875 Z M 139.125 136.421875 " fill-opacity="1" fill-rule="nonzero"/></g></svg>