<svg xmlns="http://www.w3.org/2000/svg" xmlns:xlink="http://www.w3.org/1999/xlink" width="500" zoomAndPan="magnify" viewBox="0 0 375 374.999991" height="500" preserveAspectRatio="xMidYMid meet" version="1.0"><defs><clipPath id="52daebd3d6"><path d="M 112.5 112.5 L 180 112.5 L 180 180 L 112.5 180 Z M 112.5 112.5 " clip-rule="nonzero"/></clipPath><clipPath id="6756dd8393"><path d="M 195 112.5 L 262.5 112.5 L 262.5 180 L 195 180 Z M 195 112.5 " clip-rule="nonzero"/></clipPath><clipPath id="e545fa11ff"><path d="M 112.5 195 L 180 195 L 180 262.5 L 112.5 262.5 Z M 112.5 195 " clip-rule="nonzero"/></clipPath><clipPath id="1bb9a0df9b"><path d="M 195 195 L 262.5 195 L 262.5 262.5 L 195 262.5 Z M 195 195 " clip-rule="nonzero"/></clipPath></defs><g clip-path="url(#52daebd3d6)"><path fill="#231f20" d="M 119.757812 179.515625 L 172.257812 179.515625 C 176.273438 179.515625 179.515625 176.273438 179.515625 172.257812 L 179.515625 119.757812 C 179.515625 115.742188 176.273438 112.5 172.257812 112.5 L 119.757812 112.5 C 115.742188 112.5 112.5 115.742188 112.5 119.757812 L 112.5 172.257812 C 112.5 176.273438 115.742188 179.515625 119.757812 179.515625 Z M 119.757812 179.515625 " fill-opacity="1" fill-rule="nonzero"/></g><g clip-path="url(#6756dd8393)"><path fill="#231f20" d="M 262.5 119.757812 C 262.5 115.742188 259.257812 112.5 255.242188 112.5 L 202.742188 112.5 C 198.726562 112.5 195.484375 115.742188 195.484375 119.757812 L 195.484375 172.257812 C 195.484375 176.273438 198.726562 179.515625 202.742188 179.515625 L 255.242188 179.515625 C 259.257812 179.515625 262.5 176.273438 262.5 172.257812 Z M 262.5 119.757812 " fill-opacity="1" fill-rule="nonzero"/></g><g clip-path="url(#e545fa11ff)"><path fill="#231f20" d="M 119.757812 262.5 L 172.257812 262.5 C 176.273438 262.5 179.515625 259.257812 179.515625 255.242188 L 179.515625 202.742188 C 179.515625 198.726562 176.273438 195.484375 172.257812 195.484375 L 119.757812 195.484375 C 115.742188 195.484375 112.5 198.726562 112.5 202.742188 L 112.5 255.242188 C 112.5 259.257812 115.742188 262.5 119.757812 262.5 Z M 119.757812 262.5 " fill-opacity="1" fill-rule="nonzero"/></g><g clip-path="url(#1bb9a0df9b)"><path fill="#231f20" d="M 228.96875 195.484375 C 210.484375 195.484375 195.484375 210.484375 195.484375 228.96875 C 195.484375 247.453125 210.484375 262.5 228.96875 262.5 C 247.453125 262.5 262.5 247.453125 262.5 228.96875 C 262.5 210.484375 247.453125 195.484375 228.96875 195.484375 Z M 228.96875 195.484375 " fill-opacity="1" fill-rule="nonzero"/></g></svg>