<svg xmlns="http://www.w3.org/2000/svg" xmlns:xlink="http://www.w3.org/1999/xlink" width="500" zoomAndPan="magnify" viewBox="0 0 375 374.999991" height="500" preserveAspectRatio="xMidYMid meet" version="1.0"><defs><clipPath id="e1d8586716"><path d="M 186 112.5 L 193 112.5 L 193 133 L 186 133 Z M 186 112.5 " clip-rule="nonzero"/></clipPath><clipPath id="dc7e0f29a3"><path d="M 169 241 L 207 241 L 207 262.5 L 169 262.5 Z M 169 241 " clip-rule="nonzero"/></clipPath></defs><path fill="#363336" d="M 236.847656 239.070312 L 138.417969 239.070312 C 134.984375 239.070312 131.886719 237.183594 130.324219 234.125 C 128.765625 231.089844 129.039062 227.472656 131.046875 224.707031 C 142.257812 209.21875 139.917969 188.0625 139.898438 187.851562 C 139.898438 187.734375 139.878906 187.617188 139.878906 187.519531 L 139.878906 173.898438 C 139.878906 160.839844 145.0625 148.65625 154.480469 139.589844 C 163.894531 130.519531 176.296875 125.8125 189.375 126.257812 C 214.757812 127.152344 235.402344 149.007812 235.402344 174.988281 L 235.402344 187.539062 C 235.402344 187.65625 235.402344 187.773438 235.402344 187.871094 C 235.382812 188.082031 233.085938 209.277344 244.253906 224.726562 C 246.261719 227.492188 246.535156 231.109375 244.976562 234.144531 C 243.417969 237.199219 240.316406 239.089844 236.886719 239.089844 Z M 145.707031 187.34375 C 145.960938 189.71875 147.871094 211.417969 135.765625 228.132812 C 135.042969 229.125 134.945312 230.390625 135.511719 231.480469 C 136.078125 232.589844 137.148438 233.25 138.398438 233.25 L 236.847656 233.25 C 238.09375 233.25 239.167969 232.589844 239.730469 231.480469 C 240.296875 230.390625 240.199219 229.125 239.480469 228.132812 C 227.390625 211.417969 229.28125 189.71875 229.535156 187.363281 L 229.535156 174.96875 C 229.535156 152.101562 211.425781 132.875 189.160156 132.078125 C 177.601562 131.648438 166.78125 135.832031 158.535156 143.773438 C 150.269531 151.730469 145.726562 162.414062 145.726562 173.878906 L 145.726562 187.34375 Z M 145.707031 187.34375 " fill-opacity="1" fill-rule="nonzero"/><g clip-path="url(#e1d8586716)"><path fill="#363336" d="M 189.257812 132.078125 C 187.640625 132.078125 186.335938 130.773438 186.335938 129.160156 L 186.335938 115.496094 C 186.335938 113.882812 187.640625 112.578125 189.257812 112.578125 C 190.878906 112.578125 192.183594 113.882812 192.183594 115.496094 L 192.183594 129.160156 C 192.183594 130.773438 190.878906 132.078125 189.257812 132.078125 Z M 189.257812 132.078125 " fill-opacity="1" fill-rule="nonzero"/></g><g clip-path="url(#dc7e0f29a3)"><path fill="#363336" d="M 187.621094 262.421875 C 177.40625 262.421875 169.101562 254.132812 169.101562 243.933594 C 169.101562 242.320312 170.40625 241.015625 172.027344 241.015625 C 173.644531 241.015625 174.949219 242.320312 174.949219 243.933594 C 174.949219 250.902344 180.640625 256.582031 187.621094 256.582031 C 194.601562 256.582031 200.292969 250.902344 200.292969 243.933594 C 200.292969 242.320312 201.601562 241.015625 203.21875 241.015625 C 204.835938 241.015625 206.140625 242.320312 206.140625 243.933594 C 206.140625 254.132812 197.835938 262.421875 187.621094 262.421875 Z M 187.621094 262.421875 " fill-opacity="1" fill-rule="nonzero"/></g></svg>