<svg xmlns="http://www.w3.org/2000/svg" xmlns:xlink="http://www.w3.org/1999/xlink" width="500" zoomAndPan="magnify" viewBox="0 0 375 374.999991" height="500" preserveAspectRatio="xMidYMid meet" version="1.0"><defs><clipPath id="cba89839f9"><path d="M 119 119.316406 L 256 119.316406 L 256 255.816406 L 119 255.816406 Z M 119 119.316406 " clip-rule="nonzero"/></clipPath><clipPath id="ccda6507de"><path d="M 112.5 181 L 262.5 181 L 262.5 193 L 112.5 193 Z M 112.5 181 " clip-rule="nonzero"/></clipPath></defs><g clip-path="url(#cba89839f9)"><path fill="#231f20" d="M 119.128906 124.359375 C 119.128906 121.46875 121.46875 119.125 124.359375 119.125 L 162.035156 119.125 C 164.925781 119.125 167.265625 121.46875 167.265625 124.359375 C 167.265625 127.25 164.925781 129.589844 162.035156 129.589844 L 129.59375 129.589844 L 129.59375 162.03125 C 129.59375 164.921875 127.25 167.265625 124.359375 167.265625 C 121.46875 167.265625 119.128906 164.921875 119.128906 162.03125 Z M 207.035156 124.359375 C 207.035156 121.46875 209.378906 119.125 212.265625 119.125 L 249.941406 119.125 C 252.832031 119.125 255.175781 121.46875 255.175781 124.359375 L 255.175781 162.03125 C 255.175781 164.921875 252.832031 167.265625 249.941406 167.265625 C 247.050781 167.265625 244.710938 164.921875 244.710938 162.03125 L 244.710938 129.589844 L 212.265625 129.589844 C 209.378906 129.589844 207.035156 127.25 207.035156 124.359375 Z M 124.359375 207.03125 C 127.25 207.03125 129.59375 209.375 129.59375 212.265625 L 129.59375 244.707031 L 162.035156 244.707031 C 164.925781 244.707031 167.265625 247.050781 167.265625 249.941406 C 167.265625 252.828125 164.925781 255.171875 162.035156 255.171875 L 124.359375 255.171875 C 121.46875 255.171875 119.128906 252.828125 119.128906 249.941406 L 119.128906 212.265625 C 119.128906 209.375 121.46875 207.03125 124.359375 207.03125 Z M 249.941406 207.03125 C 252.832031 207.03125 255.175781 209.375 255.175781 212.265625 L 255.175781 249.941406 C 255.175781 252.828125 252.832031 255.171875 249.941406 255.171875 L 212.265625 255.171875 C 209.378906 255.171875 207.035156 252.828125 207.035156 249.941406 C 207.035156 247.050781 209.378906 244.707031 212.265625 244.707031 L 244.710938 244.707031 L 244.710938 212.265625 C 244.710938 209.375 247.050781 207.03125 249.941406 207.03125 Z M 249.941406 207.03125 " fill-opacity="1" fill-rule="evenodd"/></g><g clip-path="url(#ccda6507de)"><path fill="#363336" d="M 112.152344 187.148438 C 112.152344 184.257812 114.492188 181.917969 117.382812 181.917969 L 256.917969 181.917969 C 259.808594 181.917969 262.152344 184.257812 262.152344 187.148438 C 262.152344 190.039062 259.808594 192.382812 256.917969 192.382812 L 117.382812 192.382812 C 114.492188 192.382812 112.152344 190.039062 112.152344 187.148438 Z M 112.152344 187.148438 " fill-opacity="1" fill-rule="evenodd"/></g></svg>