<svg xmlns="http://www.w3.org/2000/svg" xmlns:xlink="http://www.w3.org/1999/xlink" width="500" zoomAndPan="magnify" viewBox="0 0 375 374.999991" height="500" preserveAspectRatio="xMidYMid meet" version="1.0"><defs><clipPath id="92fffd270f"><path d="M 112.5 112.5 L 262.5 112.5 L 262.5 262.5 L 112.5 262.5 Z M 112.5 112.5 " clip-rule="nonzero"/></clipPath></defs><g clip-path="url(#92fffd270f)"><path fill="#231f20" d="M 250.847656 171.855469 L 247.640625 171.855469 C 245.859375 171.855469 244.289062 170.703125 243.734375 169.027344 C 242.789062 166.203125 241.675781 163.449219 240.3125 160.832031 C 239.511719 159.226562 239.789062 157.308594 241.082031 156.015625 L 243.382812 153.714844 C 247.917969 149.179688 247.917969 141.75 243.382812 137.214844 L 237.734375 131.632812 C 233.199219 127.097656 225.800781 127.097656 221.234375 131.632812 L 218.929688 133.9375 C 217.675781 135.191406 215.722656 135.503906 214.152344 134.703125 C 211.535156 133.378906 208.777344 132.226562 205.953125 131.285156 C 204.246094 130.726562 203.128906 129.15625 203.128906 127.378906 L 203.128906 124.167969 C 203.128906 117.75 197.894531 112.515625 191.476562 112.515625 L 183.558594 112.515625 C 177.140625 112.515625 171.90625 117.75 171.90625 124.167969 L 171.90625 127.378906 C 171.90625 129.15625 170.753906 130.726562 169.082031 131.285156 C 166.253906 132.226562 163.5 133.34375 160.882812 134.703125 C 159.277344 135.503906 157.359375 135.226562 156.070312 133.9375 L 153.765625 131.632812 C 149.234375 127.097656 141.800781 127.097656 137.265625 131.632812 L 131.652344 137.25 C 127.117188 141.785156 127.117188 149.214844 131.652344 153.75 L 133.953125 156.050781 C 135.210938 157.308594 135.523438 159.226562 134.722656 160.832031 C 133.394531 163.449219 132.246094 166.203125 131.300781 169.027344 C 130.746094 170.738281 129.175781 171.855469 127.394531 171.855469 L 124.1875 171.855469 C 117.734375 171.855469 112.5 177.085938 112.5 183.539062 L 112.5 191.460938 C 112.5 197.878906 117.734375 203.109375 124.152344 203.109375 L 127.359375 203.109375 C 129.140625 203.109375 130.710938 204.261719 131.265625 205.9375 C 132.210938 208.761719 133.324219 211.515625 134.6875 214.132812 C 135.488281 215.738281 135.210938 217.65625 133.917969 218.949219 L 131.617188 221.25 C 127.082031 225.785156 127.082031 233.214844 131.617188 237.75 L 137.265625 243.332031 C 141.800781 247.867188 149.199219 247.867188 153.765625 243.332031 L 156.070312 241.027344 C 157.324219 239.773438 159.277344 239.460938 160.847656 240.261719 C 163.464844 241.585938 166.222656 242.738281 169.046875 243.679688 C 170.753906 244.238281 171.871094 245.808594 171.871094 247.585938 L 171.871094 250.832031 C 171.871094 257.25 177.105469 262.484375 183.523438 262.484375 L 191.441406 262.484375 C 197.859375 262.484375 203.09375 257.25 203.09375 250.832031 L 203.09375 247.585938 C 203.09375 245.808594 204.246094 244.238281 205.917969 243.679688 C 208.746094 242.738281 211.5 241.621094 214.117188 240.261719 C 215.722656 239.460938 217.640625 239.738281 218.929688 241.027344 L 221.234375 243.332031 C 225.765625 247.867188 233.199219 247.867188 237.734375 243.332031 L 243.347656 237.714844 C 247.882812 233.179688 247.882812 225.75 243.347656 221.214844 L 241.046875 218.914062 C 239.789062 217.65625 239.476562 215.738281 240.277344 214.132812 C 241.605469 211.515625 242.753906 208.761719 243.699219 205.9375 C 244.253906 204.226562 245.824219 203.109375 247.605469 203.109375 L 250.8125 203.109375 C 257.234375 203.109375 262.464844 197.878906 262.464844 191.460938 L 262.464844 183.539062 C 262.5 177.085938 257.265625 171.855469 250.847656 171.855469 Z M 255 191.425781 C 255 193.726562 253.117188 195.574219 250.847656 195.574219 L 247.640625 195.574219 C 242.617188 195.574219 238.1875 198.785156 236.617188 203.5625 C 235.8125 206.003906 234.800781 208.414062 233.652344 210.714844 C 231.382812 215.214844 232.222656 220.621094 235.777344 224.214844 L 238.082031 226.515625 C 239.722656 228.15625 239.722656 230.773438 238.082031 232.414062 L 232.464844 238.027344 C 230.824219 239.667969 228.175781 239.632812 226.570312 238.027344 L 224.265625 235.726562 C 220.710938 232.167969 215.300781 231.296875 210.765625 233.597656 C 208.464844 234.75 206.09375 235.761719 203.617188 236.5625 C 198.835938 238.132812 195.628906 242.5625 195.628906 247.585938 L 195.628906 250.832031 C 195.628906 253.132812 193.746094 254.984375 191.476562 254.984375 L 183.558594 254.984375 C 181.253906 254.984375 179.40625 253.097656 179.40625 250.832031 L 179.40625 247.585938 C 179.40625 242.5625 176.199219 238.132812 171.417969 236.5625 C 168.976562 235.761719 166.570312 234.75 164.265625 233.597656 C 162.59375 232.761719 160.777344 232.34375 159 232.34375 C 156 232.34375 153.035156 233.527344 150.800781 235.761719 L 148.5 238.0625 C 146.859375 239.667969 144.246094 239.703125 142.605469 238.0625 L 136.988281 232.449219 C 135.347656 230.808594 135.347656 228.191406 136.988281 226.550781 L 139.289062 224.25 C 142.847656 220.691406 143.722656 215.285156 141.417969 210.75 C 140.265625 208.449219 139.253906 206.074219 138.453125 203.597656 C 136.882812 198.820312 132.453125 195.609375 127.429688 195.609375 L 124.222656 195.609375 C 121.917969 195.609375 120.070312 193.726562 120.070312 191.460938 L 120.070312 183.539062 C 120.070312 181.238281 121.953125 179.390625 124.222656 179.390625 L 127.429688 179.390625 C 132.453125 179.390625 136.882812 176.179688 138.453125 171.402344 C 139.253906 168.960938 140.265625 166.550781 141.417969 164.25 C 143.6875 159.75 142.847656 154.34375 139.289062 150.75 L 136.988281 148.449219 C 135.347656 146.808594 135.347656 144.191406 136.988281 142.550781 L 142.605469 136.9375 C 144.246094 135.296875 146.859375 135.296875 148.5 136.9375 L 150.800781 139.238281 C 154.359375 142.796875 159.800781 143.667969 164.300781 141.367188 C 166.605469 140.214844 168.976562 139.203125 171.453125 138.402344 C 176.234375 136.832031 179.441406 132.402344 179.441406 127.378906 L 179.441406 124.167969 C 179.441406 121.867188 181.324219 120.015625 183.59375 120.015625 L 191.511719 120.015625 C 193.8125 120.015625 195.664062 121.902344 195.664062 124.167969 L 195.664062 127.378906 C 195.664062 132.402344 198.871094 136.832031 203.652344 138.402344 C 206.09375 139.203125 208.5 140.214844 210.800781 141.367188 C 215.300781 143.632812 220.710938 142.796875 224.300781 139.238281 L 226.605469 136.9375 C 228.210938 135.296875 230.859375 135.296875 232.5 136.9375 L 238.117188 142.550781 C 239.753906 144.191406 239.753906 146.808594 238.117188 148.449219 L 235.8125 150.75 C 232.253906 154.308594 231.382812 159.714844 233.6875 164.25 C 234.835938 166.550781 235.847656 168.925781 236.652344 171.402344 C 238.222656 176.179688 242.652344 179.390625 247.675781 179.390625 L 250.882812 179.390625 C 253.1875 179.390625 255.035156 181.273438 255.035156 183.539062 L 255.035156 191.425781 Z M 255 191.425781 " fill-opacity="1" fill-rule="nonzero"/></g><path fill="#231f20" d="M 187.5 148.097656 C 165.800781 148.097656 148.117188 165.75 148.117188 187.484375 C 148.117188 209.214844 165.800781 226.867188 187.5 226.867188 C 209.199219 226.867188 226.882812 209.179688 226.882812 187.484375 C 226.882812 165.785156 209.199219 148.097656 187.5 148.097656 Z M 187.5 219.367188 C 169.917969 219.367188 155.617188 205.0625 155.617188 187.484375 C 155.617188 169.902344 169.917969 155.597656 187.5 155.597656 C 205.082031 155.597656 219.382812 169.902344 219.382812 187.484375 C 219.382812 205.0625 205.082031 219.367188 187.5 219.367188 Z M 187.5 219.367188 " fill-opacity="1" fill-rule="nonzero"/></svg>